<svg width="56" height="56" viewBox="0 0 56 56" fill="none" xmlns="http://www.w3.org/2000/svg">
<g id="customer-service (4) 1" clip-path="url(#clip0_1_651)">
<g id="Group">
<g id="Group_2">
<path id="Vector" d="M45.4462 48.7747L43.3552 42.5008C42.6245 40.3105 40.7603 38.6938 38.4877 38.2801L32.4515 37.1818V36.7139C33.5019 36.1042 34.416 35.2886 35.144 34.323H36.9676C38.4616 34.323 39.6773 33.1073 39.6773 31.6134V20.7747C39.6773 14.3003 34.4097 9.03271 27.9354 9.03271C21.461 9.03271 16.1934 14.3003 16.1934 20.7747V27.0972C16.1934 28.8387 17.4317 30.2956 19.0738 30.6352C19.5805 33.231 21.2027 35.4277 23.4192 36.7139V37.1818L17.3821 38.2801C15.1105 38.6938 13.2453 40.3105 12.5155 42.5008L12.1542 43.5856L9.07782 40.5092C8.72556 40.157 8.72556 39.5834 9.07782 39.2312L12.6456 35.6643L5.94904 28.9678L1.91704 32.9998C0.722978 34.1939 0.0654297 35.7817 0.0654297 37.4708C0.0654297 39.1598 0.722978 40.7468 1.91704 41.9408L14.1241 54.1479C15.3182 55.342 16.9061 56.0005 18.5951 56.0005C20.2841 56.0005 21.8711 55.342 23.0372 54.175L27.4368 50.1439L26.0648 48.7747H45.4462ZM37.8708 31.6134C37.8708 32.1119 37.4653 32.5166 36.9676 32.5166H36.208C36.4699 31.9196 36.6686 31.29 36.7969 30.6352C37.1835 30.5548 37.5394 30.4012 37.8708 30.2079V31.6134ZM36.9676 28.6526V25.5419C37.505 25.8553 37.8708 26.4316 37.8708 27.0972C37.8708 27.7629 37.505 28.3392 36.9676 28.6526ZM18.9031 28.6526C18.3657 28.3392 17.9999 27.7629 17.9999 27.0972C17.9999 26.4316 18.3657 25.8553 18.9031 25.5419V28.6526ZM18.9031 22.5811V23.6126C18.5816 23.6966 18.2799 23.823 17.9999 23.9865V20.7747C17.9999 15.2966 22.4573 10.8392 27.9354 10.8392C33.4134 10.8392 37.8708 15.2966 37.8708 20.7747V23.9865C37.5908 23.823 37.2892 23.6957 36.9676 23.6126V22.5811H36.0644C33.3936 22.5811 30.8826 21.5406 28.993 19.6519L27.9354 18.5943L26.8777 19.6519C24.9881 21.5406 22.4772 22.5811 19.8063 22.5811H18.9031ZM20.7096 28.9037V24.3532C23.4219 24.1491 25.951 23.03 27.9354 21.1432C29.9197 23.03 32.4488 24.15 35.1612 24.3532V28.9037C35.1612 30.2206 34.8017 31.4526 34.1839 32.5166H27.9354V34.323H32.699C31.4254 35.4439 29.7608 36.1295 27.9354 36.1295C23.9512 36.1295 20.7096 32.8878 20.7096 28.9037ZM30.645 37.5196V37.562L27.9354 40.2717L25.2257 37.562V37.5196C26.0819 37.7887 26.9915 37.9359 27.9354 37.9359C28.8792 37.9359 29.7888 37.7887 30.645 37.5196ZM14.228 43.0717C14.7492 41.5073 16.0814 40.3521 17.7045 40.0558L24.0181 38.9087L27.9354 42.826L31.8517 38.9096L38.1644 40.0567C39.7875 40.353 41.1197 41.5073 41.6409 43.0726L42.9407 46.9682H24.2583L20.7403 43.4501L16.8311 46.9863C16.4906 47.3286 15.8954 47.3286 15.5539 46.9863L13.5813 45.0136L14.228 43.0717ZM5.94814 31.5221L10.0903 35.6643L9.10943 36.6452L4.96724 32.503L5.94814 31.5221ZM21.7862 52.8726C20.9336 53.7234 19.7991 54.194 18.5933 54.194C17.3875 54.194 16.253 53.7234 15.3995 52.8708L3.1924 40.6646C2.33975 39.8119 1.87007 38.6775 1.87007 37.4717C1.87007 36.265 2.33975 35.1305 3.1924 34.2779L3.68917 33.7811L7.83136 37.9233L7.79885 37.9558C6.74298 39.0126 6.74298 40.7314 7.79885 41.7882L14.2759 48.2652C14.788 48.7765 15.4681 49.0592 16.1925 49.0592C16.9169 49.0592 17.597 48.7774 18.0758 48.2968L18.1435 48.2363L22.3047 52.3975L21.7862 52.8726ZM23.6378 51.1745L19.4857 47.0224L20.6788 45.9439L24.8237 50.0888L23.6378 51.1745Z" fill="white"/>
</g>
</g>
<g id="Group_3">
<g id="Group_4">
<path id="Vector_2" d="M53.2259 0H40.5808C39.0868 0 37.8711 1.21574 37.8711 2.70968V9.93548C37.8711 11.4294 39.0868 12.6452 40.5808 12.6452H42.9933L42.0593 18.0925L50.7755 12.6452H53.2259C54.7199 12.6452 55.9356 11.4294 55.9356 9.93548V2.70968C55.9356 1.21574 54.7199 0 53.2259 0ZM54.1292 9.93548C54.1292 10.4332 53.7236 10.8387 53.2259 10.8387H50.257L44.5206 14.4236L45.1357 10.8387H40.5808C40.0831 10.8387 39.6775 10.4332 39.6775 9.93548V2.70968C39.6775 2.212 40.0831 1.80645 40.5808 1.80645H53.2259C53.7236 1.80645 54.1292 2.212 54.1292 2.70968V9.93548Z" fill="white"/>
</g>
</g>
<g id="Group_5">
<g id="Group_6">
<path id="Vector_3" d="M52.3221 3.61182H41.4834V5.41827H52.3221V3.61182Z" fill="white"/>
</g>
</g>
<g id="Group_7">
<g id="Group_8">
<path id="Vector_4" d="M48.7092 7.22559H41.4834V9.03204H48.7092V7.22559Z" fill="white"/>
</g>
</g>
<g id="Group_9">
<g id="Group_10">
<path id="Vector_5" d="M52.3231 7.22559H50.5166V9.03204H52.3231V7.22559Z" fill="white"/>
</g>
</g>
<g id="Group_11">
<g id="Group_12">
<path id="Vector_6" d="M27.9353 2.70947C16.1337 2.70947 5.96794 10.8728 3.3251 22.2598L1.61349 19.4065L0.0644531 20.3359L3.23929 25.6261L8.52949 22.4513L7.60007 20.9022L5.15232 22.3709C7.71207 11.954 17.0794 4.51592 27.9353 4.51592C30.3081 4.51592 32.6492 4.86818 34.8937 5.56367L35.4285 3.8385C33.0105 3.08883 30.4896 2.70947 27.9353 2.70947Z" fill="white"/>
</g>
</g>
<g id="Group_13">
<g id="Group_14">
<path id="Vector_7" d="M55.4966 20L50.2064 16.8252L47.0325 22.1163L48.5815 23.0457L50.1622 20.411C50.994 22.8452 51.4195 25.3914 51.4195 28.0008C51.4195 33.3723 49.5588 38.6237 46.1816 42.7866L47.5843 43.9247C51.2225 39.4411 53.2259 33.7851 53.2259 28.0008C53.2259 25.2378 52.7806 22.5399 51.9126 19.9567L54.5672 21.5491L55.4966 20Z" fill="white"/>
</g>
</g>
</g>
<defs>
<clipPath id="clip0_1_651">
<rect width="56" height="56" fill="white"/>
</clipPath>
</defs>
</svg>
