<svg width="57" height="56" viewBox="0 0 57 56" fill="none" xmlns="http://www.w3.org/2000/svg">
<g id="2" clip-path="url(#clip0_1_678)">
<path id="Vector" d="M51.7337 3.73486H5.06706C2.49082 3.73805 0.403581 5.82529 0.400391 8.40153V40.1349C0.403581 42.7111 2.49082 44.7983 5.06706 44.8015H23.7337V42.9349H5.06706C3.52077 42.9349 2.26706 41.6812 2.26706 40.1349V8.40153C2.26706 6.85524 3.52077 5.60153 5.06706 5.60153H51.7337C53.28 5.60153 54.5337 6.85524 54.5337 8.40153V40.1349C54.5337 41.6812 53.28 42.9349 51.7337 42.9349H50.8004V44.8015H51.7337C54.31 44.7983 56.3972 42.7111 56.4004 40.1349V8.40153C56.3972 5.82529 54.31 3.73805 51.7337 3.73486Z" fill="white"/>
<path id="Vector_2" d="M51.7341 38.2673V8.40062C51.7341 7.88519 51.3161 7.46729 50.8007 7.46729H6.00072C5.48529 7.46729 5.06738 7.88519 5.06738 8.40062V40.134C5.06738 40.6494 5.48529 41.0673 6.00072 41.0673H30.2674V39.2006H6.93405V9.33395H49.8674V38.2673H51.7341Z" fill="white"/>
<path id="Vector_3" d="M8.7998 11.1997H10.6665V13.0664H8.7998V11.1997Z" fill="white"/>
<path id="Vector_4" d="M8.7998 14.9341H12.5331V16.8007H8.7998V14.9341Z" fill="white"/>
<path id="Vector_5" d="M8.7998 18.6665H12.5331V20.5332H8.7998V18.6665Z" fill="white"/>
<path id="Vector_6" d="M8.7998 22.3989H12.5331V24.2656H8.7998V22.3989Z" fill="white"/>
<path id="Vector_7" d="M8.7998 26.1338H12.5331V28.0005H8.7998V26.1338Z" fill="white"/>
<path id="Vector_8" d="M8.7998 29.8662H12.5331V31.7329H8.7998V29.8662Z" fill="white"/>
<path id="Vector_9" d="M8.7998 33.6011H12.5331V35.4678H8.7998V33.6011Z" fill="white"/>
<path id="Vector_10" d="M48.0005 26.1341H20.0005V23.7205L21.7227 21.9983L22.9572 23.8522C23.1113 24.086 23.3619 24.2383 23.6404 24.2674H23.7338C23.9813 24.2674 24.2187 24.169 24.3937 23.994L28.4005 19.9872L30.5406 22.1273C30.7242 22.3151 30.9803 22.4144 31.2424 22.3998C31.5044 22.3875 31.7496 22.2663 31.9182 22.0658L35.8671 17.3253L39.816 22.0658C39.9846 22.2663 40.2298 22.3875 40.4919 22.3998C40.7544 22.4153 41.0105 22.316 41.1937 22.1273L43.3338 19.9872L44.5406 21.194C44.7297 21.389 44.9963 21.4884 45.2665 21.4647C45.5368 21.4446 45.7852 21.3084 45.9469 21.0914L48.747 17.3581L47.254 16.2379L45.0997 19.1108L43.9937 18.0048C43.6291 17.6402 43.0385 17.6402 42.6739 18.0048L40.5962 20.0825L36.5831 15.2663C36.3994 15.0635 36.1387 14.9478 35.8653 14.9478C35.5919 14.9478 35.3312 15.0635 35.1475 15.2663L31.1344 20.0825L29.0567 18.0048C28.6921 17.6402 28.1015 17.6402 27.7369 18.0048L23.8746 21.8671L22.64 20.0132C22.4846 19.7808 22.2335 19.6299 21.9551 19.6026C21.6771 19.5752 21.4014 19.6737 21.2036 19.8715L20.0005 21.081V14.9341H18.1338V27.0674C18.1338 27.5828 18.5517 28.0008 19.0671 28.0008H48.0005V26.1341Z" fill="white"/>
<path id="Vector_11" d="M18.1338 11.1997H23.7338V13.0664H18.1338V11.1997Z" fill="white"/>
<path id="Vector_12" d="M25.5996 11.1997H27.4663V13.0664H25.5996V11.1997Z" fill="white"/>
<path id="Vector_13" d="M18.1338 29.8662H21.8671V31.7329H18.1338V29.8662Z" fill="white"/>
<path id="Vector_14" d="M23.7334 29.8662H25.6001V31.7329H23.7334V29.8662Z" fill="white"/>
<path id="Vector_15" d="M18.1338 33.6011H21.8671V35.4678H18.1338V33.6011Z" fill="white"/>
<path id="Vector_16" d="M23.7334 33.6011H25.6001V35.4678H23.7334V33.6011Z" fill="white"/>
<path id="Vector_17" d="M29.334 29.8662H31.2007V31.7329H29.334V29.8662Z" fill="white"/>
<path id="Vector_18" d="M40.5342 29.8662H44.2675V31.7329H40.5342V29.8662Z" fill="white"/>
<path id="Vector_19" d="M46.1338 29.8662H48.0005V31.7329H46.1338V29.8662Z" fill="white"/>
<path id="Vector_20" d="M40.5342 33.6011H44.2675V35.4678H40.5342V33.6011Z" fill="white"/>
<path id="Vector_21" d="M46.1338 33.6011H48.0005V35.4678H46.1338V33.6011Z" fill="white"/>
<path id="Vector_22" d="M46.6003 38.3041C45.7859 38.1692 44.9533 38.3988 44.3239 38.933C44.3052 38.948 44.2875 38.964 44.2688 38.9808C43.2069 38.0274 41.5973 38.0274 40.5354 38.9808C39.763 38.3191 38.7016 38.1085 37.7354 38.4253V33.6998C37.7532 32.3067 36.7702 31.1013 35.4021 30.8374C34.5891 30.6993 33.756 30.9267 33.1262 31.4595C32.4959 31.9918 32.1332 32.7752 32.1336 33.6V45.0183L29.6567 43.5326C28.9002 43.0755 27.9623 43.0404 27.1739 43.4392L27.0263 43.5121C26.2169 43.9173 25.6791 44.7171 25.6085 45.6194C25.5378 46.5218 25.9448 47.3954 26.6813 47.9222L32.5246 52.0949C32.6832 52.2074 32.8728 52.2671 33.0669 52.2667H48.0003C48.5157 52.2667 48.9336 51.8488 48.9336 51.3333V41.1665C48.9509 39.7733 47.9684 38.5679 46.6003 38.3041ZM47.067 50.4H33.3655L27.7654 46.4005C27.5613 46.2556 27.4478 46.0136 27.4669 45.7634C27.4861 45.5132 27.6347 45.2913 27.8589 45.1787L28.0056 45.1063C28.2235 44.9955 28.4828 45.0055 28.6915 45.1322L32.5825 47.4656C32.871 47.6406 33.2315 47.6465 33.525 47.4811C33.8189 47.3152 34.0007 47.0039 34.0003 46.6667V33.6C34.0003 33.3257 34.1206 33.0655 34.3298 32.8877C34.5412 32.7068 34.8229 32.6307 35.0968 32.6808C35.563 32.7947 35.8847 33.2204 35.867 33.6998V41.0667C35.867 41.5821 36.2849 42 36.8003 42C37.3157 42 37.7336 41.5821 37.7336 41.0667C37.7336 40.5513 38.1515 40.1334 38.667 40.1334C39.1824 40.1334 39.6003 40.5513 39.6003 41.0667C39.6003 41.5821 40.0182 42 40.5336 42C41.0491 42 41.467 41.5821 41.467 41.0667C41.467 40.5513 41.8849 40.1334 42.4003 40.1334C42.9157 40.1334 43.3336 40.5513 43.3336 41.0667C43.3336 41.5821 43.7515 42 44.267 42C44.7824 42 45.2003 41.5821 45.2003 41.0667C45.2003 40.7905 45.3224 40.5285 45.5339 40.3512C45.7458 40.1735 46.0252 40.0992 46.2968 40.1475C46.763 40.2614 47.0847 40.6871 47.067 41.1665V50.4Z" fill="white"/>
<path id="Vector_23" d="M14.4004 11.1997H16.2671V37.333H14.4004V11.1997Z" fill="white"/>
</g>
<defs>
<clipPath id="clip0_1_678">
<rect width="56" height="56" fill="white" transform="translate(0.400391)"/>
</clipPath>
</defs>
</svg>
