<svg width="57" height="56" viewBox="0 0 57 56" fill="none" xmlns="http://www.w3.org/2000/svg">
<g id="online-course 1" clip-path="url(#clip0_1_727)">
<path id="Vector" d="M28.5998 25.1992C28.4635 25.1992 28.3282 25.1693 28.2022 25.1105L12.3355 17.6438C12.0089 17.4898 11.7998 17.1604 11.7998 16.7992C11.7998 16.438 12.0089 16.1085 12.3355 15.9545L28.2022 8.48783C28.4542 8.36929 28.7454 8.36929 28.9974 8.48783L44.8641 15.9545C45.1907 16.1085 45.3998 16.438 45.3998 16.7992C45.3998 17.1604 45.1907 17.4898 44.8641 17.6438L28.9974 25.1105C28.8714 25.1693 28.7361 25.1992 28.5998 25.1992ZM14.9255 16.7992L28.5998 23.2345L42.2741 16.7992L28.5998 10.3638L14.9255 16.7992Z" fill="white"/>
<path id="Vector_2" d="M28.6001 32.6662C28.4573 32.6662 28.3136 32.6336 28.1829 32.5682L16.9829 26.9682C16.6665 26.8096 16.4668 26.4866 16.4668 26.1329V18.9957C16.4668 18.6765 16.6301 18.3787 16.8999 18.2079C17.1696 18.0362 17.5084 18.0166 17.7968 18.151L28.6001 23.2349L39.4025 18.151C39.6919 18.0157 40.0307 18.0362 40.2995 18.2079C40.5701 18.3787 40.7335 18.6765 40.7335 18.9957V26.1329C40.7335 26.4866 40.5337 26.8096 40.2173 26.9682L29.0173 32.5682C28.8867 32.6336 28.7429 32.6662 28.6001 32.6662ZM18.3335 25.5561L28.6001 30.6894L38.8668 25.5561V20.4666L28.9977 25.1109C28.7457 25.2294 28.4545 25.2294 28.2025 25.1109L18.3335 20.4666V25.5561Z" fill="white"/>
<path id="Vector_3" d="M44.466 17.7329H28.5993C28.0841 17.7329 27.666 17.3147 27.666 16.7995C27.666 16.2843 28.0841 15.8662 28.5993 15.8662H44.466C44.9812 15.8662 45.3993 16.2843 45.3993 16.7995C45.3993 17.3147 44.9812 17.7329 44.466 17.7329Z" fill="white"/>
<path id="Vector_4" d="M44.4665 26.1329C43.9513 26.1329 43.5332 25.7147 43.5332 25.1995V16.7995C43.5332 16.2843 43.9513 15.8662 44.4665 15.8662C44.9817 15.8662 45.3999 16.2843 45.3999 16.7995V25.1995C45.3999 25.7147 44.9817 26.1329 44.4665 26.1329Z" fill="white"/>
<path id="Vector_5" d="M28.5993 19.6C28.0841 19.6 27.666 19.1819 27.666 18.6667V14.9333C27.666 14.4181 28.0841 14 28.5993 14C29.1145 14 29.5327 14.4181 29.5327 14.9333V18.6667C29.5327 19.1819 29.1145 19.6 28.5993 19.6Z" fill="white"/>
<path id="Vector_6" d="M42.5983 28.9327C42.421 28.9327 42.2408 28.8823 42.0812 28.7759C41.6528 28.4903 41.5371 27.9107 41.8227 27.4814L43.6894 24.6814C43.975 24.2521 44.5536 24.1354 44.9839 24.4229C45.4123 24.7085 45.528 25.2881 45.2424 25.7174L43.3758 28.5174C43.1956 28.7871 42.8998 28.9327 42.5983 28.9327Z" fill="white"/>
<path id="Vector_7" d="M46.334 28.9327C46.0325 28.9327 45.7367 28.7871 45.5565 28.5174L43.6899 25.7174C43.4043 25.289 43.52 24.7085 43.9484 24.4229C44.3768 24.1354 44.9564 24.2521 45.2429 24.6814L47.1096 27.4814C47.3952 27.9098 47.2795 28.4903 46.8511 28.7759C46.6915 28.8823 46.5113 28.9327 46.334 28.9327Z" fill="white"/>
<path id="Vector_8" d="M28.5993 28.0002C28.0841 28.0002 27.666 27.582 27.666 27.0668V24.2668C27.666 23.7516 28.0841 23.3335 28.5993 23.3335C29.1145 23.3335 29.5327 23.7516 29.5327 24.2668V27.0668C29.5327 27.582 29.1145 28.0002 28.5993 28.0002Z" fill="white"/>
<path id="Vector_9" d="M55.6663 36.3988H1.53294C1.01774 36.3988 0.599609 35.9807 0.599609 35.4655V4.66639C0.599609 2.60746 2.27494 0.932129 4.33388 0.932129H52.8653C54.9243 0.932129 56.5996 2.60746 56.5996 4.66639V35.4655C56.5996 35.9807 56.1815 36.3988 55.6663 36.3988ZM2.46628 34.5321H54.7329V4.66639C54.7329 3.636 53.8957 2.7988 52.8653 2.7988H4.33388C3.30348 2.7988 2.46628 3.636 2.46628 4.66639V34.5321Z" fill="white"/>
<path id="Vector_10" d="M52.8653 43.866H4.33388C2.27494 43.866 0.599609 42.1907 0.599609 40.1318V35.466C0.599609 34.9508 1.01774 34.5327 1.53294 34.5327H55.6663C56.1815 34.5327 56.5996 34.9508 56.5996 35.466V40.1318C56.5996 42.1907 54.9243 43.866 52.8653 43.866ZM2.46628 36.3994V40.1318C2.46628 41.1622 3.30348 41.9994 4.33388 41.9994H52.8653C53.8957 41.9994 54.7329 41.1622 54.7329 40.1318V36.3994H2.46628Z" fill="white"/>
<path id="Vector_11" d="M31.3995 40.1342H25.7995C25.2843 40.1342 24.8662 39.7161 24.8662 39.2009C24.8662 38.6857 25.2843 38.2676 25.7995 38.2676H31.3995C31.9147 38.2676 32.3329 38.6857 32.3329 39.2009C32.3329 39.7161 31.9147 40.1342 31.3995 40.1342Z" fill="white"/>
<path id="Vector_12" d="M51.933 36.3998H5.26634C4.75114 36.3998 4.33301 35.9817 4.33301 35.4665V5.59984C4.33301 5.08464 4.75114 4.6665 5.26634 4.6665H51.933C52.4482 4.6665 52.8663 5.08464 52.8663 5.59984V35.4665C52.8663 35.9817 52.4482 36.3998 51.933 36.3998ZM6.19967 34.5332H50.9997V6.53317H6.19967V34.5332Z" fill="white"/>
<path id="Vector_13" d="M40.7327 55.0673H16.466C14.9223 55.0673 13.666 53.811 13.666 52.2673C13.666 50.7236 14.9223 49.4673 16.466 49.4673H40.7327C42.2764 49.4673 43.5327 50.7236 43.5327 52.2673C43.5327 53.811 42.2764 55.0673 40.7327 55.0673ZM16.466 51.334C15.9517 51.334 15.5327 51.753 15.5327 52.2673C15.5327 52.7816 15.9517 53.2006 16.466 53.2006H40.7327C41.2469 53.2006 41.666 52.7816 41.666 52.2673C41.666 51.753 41.2469 51.334 40.7327 51.334H16.466Z" fill="white"/>
<path id="Vector_14" d="M38.8661 51.3333H18.3327C17.8175 51.3333 17.3994 50.9152 17.3994 50.4C17.3994 49.8848 17.8175 49.4667 18.3327 49.4667C21.4296 49.4667 22.9994 47.2687 22.9994 42.9333C22.9994 42.4181 23.4176 42 23.9328 42H33.2661C33.7813 42 34.1994 42.4181 34.1994 42.9333C34.1994 47.2687 35.7693 49.4667 38.8661 49.4667C39.3813 49.4667 39.7994 49.8848 39.7994 50.4C39.7994 50.9152 39.3813 51.3333 38.8661 51.3333ZM22.879 49.4667H34.3208C33.1709 48.1936 32.4942 46.298 32.3589 43.8667H24.8409C24.7046 46.298 24.0289 48.1936 22.879 49.4667Z" fill="white"/>
</g>
<defs>
<clipPath id="clip0_1_727">
<rect width="56" height="56" fill="white" transform="translate(0.599609)"/>
</clipPath>
</defs>
</svg>
