<svg width="51" height="56" viewBox="0 0 51 56" fill="none" xmlns="http://www.w3.org/2000/svg">
<g id="Frame" clip-path="url(#clip0_1_747)">
<g id="XMLID_1_">
<path id="XMLID_8_" d="M15.9513 23.856C7.15501 23.856 0 31.0652 0 39.928C0 48.7909 7.15501 56 15.9513 56C22.9076 56 28.8316 51.4911 31.0051 45.2251C32.0821 45.2703 33.0695 45.2832 33.8709 45.2832C38.7691 45.2832 50.162 44.7599 50.162 39.9216C50.162 39.9086 50.162 39.8893 50.162 39.8763C50.162 39.8634 50.162 39.8505 50.162 39.8376V33.6685V33.3842C50.1941 33.2421 50.2069 33.0936 50.2069 32.9385C50.2069 32.7964 50.1877 32.6543 50.162 32.5186V27.2087C50.1941 27.0666 50.2069 26.918 50.2069 26.7629C50.2069 26.6208 50.1877 26.4787 50.162 26.3431V20.4323C50.1941 20.2902 50.2069 20.1417 50.2069 19.9866C50.2069 19.7347 50.1556 19.4957 50.0723 19.2696C50.1236 19.0564 50.1556 18.8368 50.1556 18.6042C50.1556 18.5913 50.1556 18.5784 50.1556 18.559C50.1556 18.5461 50.1556 18.5332 50.1556 18.5202V12.0669C50.1877 11.9248 50.2005 11.7762 50.2005 11.6212C50.2005 11.4791 50.1813 11.3369 50.1556 11.2078V5.30349C50.1877 5.16138 50.2005 5.0128 50.2005 4.85777C50.2005 4.59292 50.1492 4.34744 50.0594 4.11489C49.9184 3.61749 49.6106 3.20406 49.2003 2.94567C45.8793 0.096897 35.2814 0 33.8709 0C32.4668 0 21.8625 0.096897 18.5351 2.93921C18.1247 3.1976 17.817 3.61103 17.676 4.10843C17.5862 4.34744 17.5349 4.59292 17.5349 4.85777C17.5349 5.0128 17.5541 5.15492 17.5798 5.30349V11.2142C17.5541 11.3499 17.5349 11.4855 17.5349 11.6341C17.5349 11.7891 17.5541 11.9312 17.5798 12.0798V18.5332C17.5798 18.5461 17.5798 18.559 17.5798 18.5784C17.5798 18.5913 17.5798 18.6042 17.5798 18.6171C17.5798 18.8497 17.6118 19.0693 17.6631 19.2825C17.5798 19.5086 17.5349 19.7476 17.5349 19.9995C17.5349 20.1546 17.5541 20.2967 17.5798 20.4453V23.9465C17.0476 23.8883 16.5027 23.856 15.9513 23.856ZM48.3027 39.7924C48.3027 39.8311 48.2963 39.8763 48.2963 39.9086C48.2963 39.9216 48.2963 39.9409 48.2963 39.9603C48.2066 41.7626 41.7696 43.2225 33.8709 43.2225C33.0887 43.2225 32.3194 43.2031 31.5692 43.1773C31.7872 42.1243 31.8962 41.0391 31.8962 39.928C31.8962 39.6438 31.8898 39.3596 31.8706 39.0818C32.6079 39.1012 33.2875 39.1141 33.8645 39.1141C37.5382 39.1141 44.8599 38.8169 48.2963 36.6335V39.7924H48.3027ZM48.3027 33.6233C48.3027 33.662 48.2963 33.7072 48.2963 33.7395C48.2963 33.7524 48.2963 33.7718 48.2963 33.7912C48.2066 35.5935 41.7696 37.0534 33.8709 37.0534C33.108 37.0534 32.3642 37.034 31.6269 37.0082C31.3128 35.3028 30.7422 33.6943 29.9408 32.2215C31.4346 32.3119 32.8066 32.3378 33.8709 32.3378C37.5446 32.3378 44.8663 32.0406 48.3027 29.8572V33.6233ZM48.3027 18.4815C48.3027 18.5202 48.2963 18.5655 48.2963 18.5978C48.2963 18.6107 48.2963 18.6301 48.2963 18.6494C48.2066 20.4517 41.7696 21.9116 33.8709 21.9116C25.9722 21.9116 19.5352 20.4517 19.4455 18.6494C19.4455 18.6107 19.4519 18.5784 19.4455 18.5461C19.4455 18.5267 19.4455 18.5009 19.4455 18.4815L19.4391 14.7154C22.8755 16.9053 30.1972 17.196 33.8709 17.196C37.5446 17.196 44.8663 16.9053 48.3027 14.7154V18.4815ZM33.8709 2.37075C42.0645 2.37075 47.1359 3.90172 47.995 4.85777C47.1359 5.81382 42.0645 7.34479 33.8709 7.34479C25.6837 7.35125 20.6059 5.81382 19.7468 4.85777C20.6059 3.90172 25.6837 2.37075 33.8709 2.37075ZM33.8709 9.722C35.166 9.722 44.2764 9.63802 48.3027 7.39647V11.7116C48.3027 11.7504 48.2963 11.7956 48.2963 11.8279C48.2963 11.8473 48.2963 11.8602 48.2963 11.8796C48.2066 13.6819 41.7696 15.1418 33.8709 15.1418C25.9722 15.1418 19.5352 13.6819 19.4455 11.8796C19.4455 11.8408 19.4519 11.8085 19.4455 11.7762C19.4455 11.7568 19.4455 11.731 19.4455 11.7052L19.4391 7.39001C23.4654 9.63802 32.5758 9.722 33.8709 9.722ZM33.8709 24.8573C35.166 24.8573 44.2764 24.7733 48.3027 22.5318V26.8469C48.3027 26.8857 48.2963 26.9309 48.2963 26.9632C48.2963 26.9761 48.2963 26.9955 48.2963 27.0149C48.2066 28.8172 41.7696 30.2771 33.8709 30.2771C31.9732 30.2771 30.1652 30.1931 28.5046 30.0381C26.2735 27.1635 23.0871 25.0769 19.4391 24.2501V22.5318C23.4654 24.7733 32.5758 24.8573 33.8709 24.8573ZM29.8574 39.928C29.8574 47.6539 23.6192 53.9393 15.9513 53.9393C8.2834 53.9393 2.04521 47.6539 2.04521 39.928C2.04521 32.2021 8.2834 25.9167 15.9513 25.9167C23.6192 25.9167 29.8574 32.2021 29.8574 39.928Z" fill="white"/>
<path id="XMLID_5_" d="M5.20605 39.9282C5.20605 45.897 10.0274 50.7548 15.9514 50.7548C21.8754 50.7548 26.6967 45.897 26.6967 39.9282C26.6967 33.9593 21.8754 29.1016 15.9514 29.1016C10.0209 29.1016 5.20605 33.9593 5.20605 39.9282ZM25.3375 39.9282C25.3375 45.1412 21.1253 49.3853 15.9514 49.3853C10.7775 49.3853 6.56525 45.1412 6.56525 39.9282C6.56525 34.7151 10.7775 30.471 15.9514 30.471C21.1253 30.471 25.3375 34.7151 25.3375 39.9282Z" fill="white"/>
<path id="XMLID_2_" d="M14.6374 33.0998V34.2625C14.0732 34.4757 13.586 34.7987 13.2013 35.2121C12.5986 35.8516 12.2717 36.7108 12.2717 37.6152C12.2717 38.0997 12.3614 38.5518 12.5409 38.9588C12.7846 39.5208 13.2013 40.0182 13.7847 40.4316C14.2335 40.7546 14.7849 41.0389 15.5286 41.336C16.1377 41.5815 16.3877 41.7882 16.4903 41.8851C16.5608 41.9626 16.5929 42.0078 16.6057 42.0466C16.6185 42.0789 16.6378 42.1306 16.6378 42.2145C16.6378 42.3502 16.5993 42.4342 16.5031 42.5117C16.3621 42.6344 16.112 42.699 15.8299 42.699C15.1503 42.7313 14.522 42.4406 14.163 42.2016L13.7591 41.9303C13.586 41.814 13.368 41.7817 13.1692 41.8528C12.9705 41.9174 12.8102 42.0724 12.7397 42.2727L12.105 44.062C12.0024 44.3527 12.105 44.6757 12.3486 44.8501L12.5858 45.0181C12.9577 45.2894 13.4257 45.5026 13.9642 45.6576C14.1502 45.7158 14.3425 45.761 14.5348 45.7997V46.8139C14.5348 47.1951 14.8426 47.4987 15.2144 47.4987H16.9583C17.3366 47.4987 17.6379 47.1886 17.6379 46.8139V45.6059C18.2662 45.3669 18.8048 44.9987 19.2215 44.5142C19.7985 43.8489 20.1127 42.9962 20.1127 42.1047C20.1127 41.6332 20.0422 41.1939 19.9011 40.7934C19.6895 40.1926 19.3113 39.6694 18.7791 39.2301C18.3367 38.8619 17.7918 38.5454 17.0673 38.2482C17.0417 38.2353 17.0224 38.2288 16.9968 38.2159C16.2659 37.9123 15.971 37.7185 15.8492 37.6087C15.8043 37.5699 15.7722 37.5312 15.7594 37.5054C15.753 37.4989 15.753 37.4731 15.753 37.4149C15.753 37.3697 15.7658 37.3116 15.8107 37.2663C15.9005 37.1759 16.0992 37.1307 16.3557 37.1242C16.6826 37.1242 16.9776 37.1694 17.2596 37.2663C17.4905 37.3439 17.6636 37.4408 17.8046 37.5183L18.1893 37.7379C18.3624 37.8348 18.5676 37.8542 18.7599 37.7896C18.9458 37.725 19.0997 37.5764 19.1702 37.3891L19.8306 35.632C19.946 35.3219 19.8242 34.9666 19.5357 34.7987L19.2343 34.6437C18.7791 34.3723 18.2726 34.1786 17.7213 34.0687V33.1062C17.7213 32.7251 17.4199 32.4215 17.0417 32.4215H15.317C14.9388 32.415 14.6374 32.7186 14.6374 33.0998ZM15.9966 34.7664V33.7845H16.3621V34.6501C16.3621 35.0054 16.6313 35.2961 16.9776 35.3349C17.4712 35.3801 17.92 35.5093 18.3239 35.7031L18.1508 36.1682C18.0098 36.1036 17.8559 36.0325 17.6764 35.9744C17.2596 35.8323 16.8109 35.7612 16.3364 35.7612C15.7017 35.7612 15.2016 35.9421 14.849 36.2909C14.5477 36.5881 14.381 36.9886 14.381 37.4278C14.381 37.6862 14.4259 37.9059 14.522 38.1061C14.6182 38.3064 14.7528 38.4808 14.9388 38.6487C15.2401 38.92 15.7273 39.1849 16.5095 39.5079C17.125 39.7598 17.5674 40.0118 17.9072 40.296C18.247 40.5738 18.4842 40.9032 18.6124 41.265C18.7022 41.5169 18.7471 41.8011 18.7471 42.1112C18.7471 42.6667 18.5483 43.2029 18.1893 43.6163C17.8495 44.0104 17.3686 44.2946 16.7916 44.4367C16.4839 44.5142 16.2723 44.7855 16.2723 45.1021V46.1292H15.894V45.199C15.894 44.8437 15.6248 44.5465 15.2721 44.5142C14.958 44.4884 14.6438 44.4303 14.3425 44.3398C14.0476 44.2558 13.7783 44.146 13.5603 44.0168L13.727 43.5388C14.3553 43.8747 15.1055 44.0685 15.8107 44.0685C16.4454 44.0814 16.9711 43.8941 17.3686 43.5582C17.7661 43.2158 17.9841 42.7572 17.9841 42.2145C17.9841 41.9562 17.9392 41.7236 17.8431 41.504C17.7533 41.2908 17.6251 41.097 17.4456 40.9161C17.1378 40.5996 16.6698 40.3154 16.0223 40.057C15.3811 39.805 14.9195 39.566 14.5669 39.3141C14.1886 39.0428 13.9322 38.7456 13.7847 38.4033C13.6821 38.1707 13.6309 37.8994 13.6309 37.6087C13.6309 37.0532 13.8296 36.5364 14.195 36.1488C14.5156 35.8064 14.958 35.5545 15.4773 35.4318C15.7851 35.3542 15.9966 35.0829 15.9966 34.7664Z" fill="white"/>
</g>
</g>
<defs>
<clipPath id="clip0_1_747">
<rect width="50.2069" height="56" fill="white"/>
</clipPath>
</defs>
</svg>
