<svg width="51" height="56" viewBox="0 0 51 56" fill="none" xmlns="http://www.w3.org/2000/svg">
<g id="Frame" clip-path="url(#clip0_1_707)">
<g id="XMLID_1_">
<path id="XMLID_9_" d="M12.3167 50.3856C14.5717 50.3856 16.4075 48.6513 16.4075 46.5236V18.1838C16.4075 16.0561 14.5717 14.3218 12.3167 14.3218H4.89063C2.63566 14.3218 0.799805 16.0502 0.799805 18.1838V46.5295C0.799805 48.6572 2.63566 50.3916 4.89063 50.3916H12.3167V50.3856ZM2.83636 46.5236V18.1838C2.83636 17.1885 3.75724 16.378 4.88473 16.378H12.3108C13.4442 16.378 14.3592 17.1885 14.3592 18.1838V46.5295C14.3592 47.5248 13.4383 48.3354 12.3108 48.3354H4.89063C3.75724 48.3294 2.83636 47.5189 2.83636 46.5236Z" fill="white"/>
<path id="XMLID_6_" d="M39.3877 0C37.1327 0 35.2969 2.26479 35.2969 5.05407V45.3316C35.2969 48.1209 37.1327 50.3857 39.3877 50.3857H46.8138C49.0687 50.3857 50.9046 48.1209 50.9046 45.3316V5.05407C50.9046 2.26479 49.0746 0 46.8138 0H39.3877ZM48.868 5.05407V45.3316C48.868 46.9527 47.9294 48.3295 46.8138 48.3295H39.3877C38.2779 48.3295 37.3393 46.9587 37.3393 45.3316V5.05407C37.3393 3.43295 38.2779 2.05619 39.3877 2.05619H46.8138C47.9294 2.05619 48.868 3.43295 48.868 5.05407Z" fill="white"/>
<path id="XMLID_3_" d="M21.8975 50.3859H29.3235C31.6198 50.3859 33.4144 49.1104 33.4144 47.4834V28.7511C33.4144 27.1241 31.6198 25.8486 29.3235 25.8486H21.8975C19.6012 25.8486 17.8066 27.1241 17.8066 28.7511V47.4834C17.8066 49.1164 19.6012 50.3859 21.8975 50.3859ZM19.8432 28.7511C19.8432 28.4949 20.6165 27.9108 21.8916 27.9108H29.3176C30.5927 27.9108 31.366 28.4949 31.366 28.7511V47.4834C31.366 47.7396 30.5927 48.3237 29.3176 48.3237H21.8975C20.6224 48.3237 19.8491 47.7396 19.8491 47.4834V28.7511H19.8432Z" fill="white"/>
<path id="XMLID_2_" d="M2.58887 54.1168C2.58887 55.1598 3.50384 56.0061 4.63723 56.0061H47.8418C48.9752 56.0061 49.8902 55.1598 49.8902 54.1168C49.8902 53.0738 48.9752 52.2334 47.8418 52.2334H4.63133C3.50384 52.2275 2.58887 53.0738 2.58887 54.1168Z" fill="white"/>
</g>
</g>
<defs>
<clipPath id="clip0_1_707">
<rect width="50.1053" height="56" fill="white" transform="translate(0.799805)"/>
</clipPath>
</defs>
</svg>
