<svg width="57" height="56" viewBox="0 0 57 56" fill="none" xmlns="http://www.w3.org/2000/svg">
<g id="broker (1) 1">
<g id="Group">
<path id="Vector" d="M46.5752 17.661V15.75H44.8252V17.5H43.0752V20.125C43.0752 21.5722 44.2529 22.75 45.7002 22.75C46.1832 22.75 46.5752 23.1429 46.5752 23.625V24.5H45.7002C45.2172 24.5 44.8252 24.1071 44.8252 23.625V22.75H43.0752V23.625C43.0752 24.7642 43.8093 25.7268 44.8252 26.089V28H46.5752V26.25H48.3252V23.625C48.3252 22.1778 47.1474 21 45.7002 21C45.2172 21 44.8252 20.6071 44.8252 20.125V19.25H45.7002C46.1832 19.25 46.5752 19.6429 46.5752 20.125V21H48.3252V20.125C48.3252 18.9857 47.5911 18.0233 46.5752 17.661Z" fill="white"/>
<path id="Vector_2" d="M55.3252 21.875C55.3252 16.5681 51.0071 12.25 45.7002 12.25C40.3933 12.25 36.0752 16.5681 36.0752 21.875C36.0752 23.7746 36.6256 25.5841 37.6423 27.1346C35.3673 27.1644 33.2227 27.7384 31.3309 28.7341C30.6292 27.5196 29.6728 26.4722 28.4986 25.69C27.3689 24.9366 26.0608 24.437 24.7151 24.2445L21.0322 23.7178L20.5229 21.6834C22.0236 20.7445 23.1401 19.257 23.5951 17.5009H23.8252C25.7554 17.5009 27.3252 15.9311 27.3252 14.0009C27.3252 13.1731 27.0242 12.4206 26.5412 11.8212L27.1712 9.47188C27.2736 9.06413 27.3252 8.64588 27.3252 8.22675C27.3252 6.0795 25.9689 4.144 23.9521 3.41075L18.1963 1.31775C17.3878 1.02375 16.5434 0.875 15.6851 0.875C13.3847 0.875 11.1876 1.97312 9.80857 3.81325L9.36407 4.40475C7.65257 4.6305 6.3252 6.10138 6.3252 7.875C6.3252 9.28288 6.81957 11.0136 7.08732 11.8457C6.61744 12.4416 6.3252 13.1836 6.3252 14C6.3252 15.9303 7.89495 17.5 9.8252 17.5H10.0553C10.5094 19.2561 11.6268 20.7436 13.1274 21.6825L12.6182 23.7169L8.93532 24.2436C7.58957 24.4361 6.28145 24.9366 5.15182 25.6891C2.59945 27.3901 1.0752 30.2382 1.0752 33.306V49H26.2594C28.7829 52.6943 33.0249 55.125 37.8252 55.125C45.5444 55.125 51.8252 48.8442 51.8252 41.125C51.8252 37.2855 50.2703 33.8048 47.7591 31.2725C52.0789 30.3266 55.3252 26.4749 55.3252 21.875ZM34.4494 47.25C33.9393 45.7616 33.5692 44.0116 33.4826 42H42.1687C42.0812 44.0081 41.7084 45.7599 41.1957 47.25H34.4494ZM40.4878 49C39.5533 50.9871 38.4674 52.3329 37.8234 53.0233C37.1768 52.3337 36.0883 50.9915 35.1538 49H40.4878ZM35.1626 33.25C36.0971 31.2638 37.1829 29.918 37.8269 29.2267C38.4736 29.9154 39.5621 31.2585 40.4966 33.25H35.1626ZM41.2009 35C41.7111 36.4884 42.0812 38.2384 42.1678 40.25H33.4817C33.5692 38.2419 33.9419 36.4901 34.4556 35H41.2009ZM33.2306 33.25H28.4557C30.2582 31.108 32.7799 29.5986 35.6456 29.0806C34.8808 30.058 33.9822 31.4457 33.2306 33.25ZM27.2324 35H32.5962C32.1307 36.5199 31.8096 38.2734 31.7326 40.25H25.6198C25.7546 38.3469 26.3233 36.5654 27.2324 35ZM31.7317 42C31.8096 43.9766 32.1298 45.7301 32.5953 47.25H27.2316C26.3224 45.6846 25.7537 43.9031 25.6181 42H31.7317ZM43.9187 42H50.0314C49.8958 43.9031 49.3271 45.6846 48.4179 47.25H43.0542C43.5197 45.7301 43.8408 43.9766 43.9187 42ZM43.9187 40.25C43.8408 38.2734 43.5206 36.5199 43.0551 35H48.4188C49.3279 36.5654 49.8967 38.3469 50.0323 40.25H43.9187ZM42.4198 33.25C41.6682 31.4457 40.7696 30.058 40.0048 29.0806C42.8704 29.5986 45.3913 31.108 47.1947 33.25H42.4198ZM16.8252 28.9783L17.9531 29.5426L17.2321 30.625H16.4192L15.6973 29.5426L16.8252 28.9783ZM14.1197 30.331L14.9851 31.6295L14.0978 34.2921C13.5238 33.2579 13.0443 32.1781 12.6637 31.0599L14.1197 30.331ZM16.5811 32.375H17.0702L18.3468 36.204C17.8761 36.8629 17.3791 37.5051 16.8252 38.1097C16.2713 37.5051 15.7743 36.8629 15.3036 36.204L16.5811 32.375ZM19.5534 34.2921L18.6662 31.6295L19.5316 30.331L20.9884 31.059C20.6069 32.1781 20.1274 33.2579 19.5534 34.2921ZM22.0279 25.627C21.9623 26.8949 21.7803 28.1391 21.4846 29.3519L18.3013 27.7603L20.6332 25.4284L22.0279 25.627ZM23.8252 15.75V12.25C24.7903 12.25 25.5752 13.0349 25.5752 14C25.5752 14.9651 24.7903 15.75 23.8252 15.75ZM8.0752 14C8.0752 13.0349 8.86007 12.25 9.8252 12.25H9.85757C9.84445 12.4259 9.8252 12.6009 9.8252 12.7794V15.75C8.86007 15.75 8.0752 14.9651 8.0752 14ZM10.2277 10.5H9.8252C9.38507 10.5 8.96857 10.591 8.58007 10.7397C8.34907 9.93475 8.0752 8.79287 8.0752 7.875C8.0752 6.90987 8.86007 6.125 9.8252 6.125H10.2627L11.2086 4.86325C12.2594 3.4615 13.9333 2.625 15.6851 2.625C16.3387 2.625 16.9818 2.73787 17.5978 2.96187L23.3536 5.05487C24.6818 5.53788 25.5752 6.81275 25.5752 8.22675C25.5752 8.50238 25.5411 8.77712 25.4781 9.03088L25.0239 10.7249C24.6486 10.5866 24.2478 10.5 23.8252 10.5H22.9502C18.8963 10.5 13.8607 7.18025 13.8108 7.14612L13.3243 6.82325L12.8396 7.147C11.6102 7.96688 10.7107 9.14987 10.2277 10.5ZM11.5752 15.75V12.7794C11.5752 11.284 12.2358 9.884 13.3663 8.9355C14.7339 9.77112 18.5061 11.8912 22.0752 12.2089V15.75C22.0752 18.6454 19.7206 21 16.8252 21C13.9298 21 11.5752 18.6454 11.5752 15.75ZM16.8252 22.75C17.5497 22.75 18.2497 22.6389 18.9068 22.4341L19.3557 24.2323L16.8252 26.7628L14.2947 24.2323L14.7436 22.4341C15.4007 22.6389 16.1007 22.75 16.8252 22.75ZM13.0163 25.4284L15.3482 27.7603L12.1649 29.3519C11.8701 28.1391 11.6872 26.8949 11.6216 25.627L13.0163 25.4284ZM8.0752 47.25V34.125H6.3252V47.25H2.8252V33.306C2.8252 30.8245 4.05807 28.5206 6.12307 27.1442C7.03657 26.5352 8.09532 26.1301 9.18382 25.9744L9.86457 25.8772C10.1769 31.2113 12.4064 36.1917 16.2066 39.9928L16.8252 40.6123L17.4438 39.9936C21.2439 36.1926 23.4734 31.2121 23.7858 25.8781L24.4666 25.9753C25.5551 26.131 26.6138 26.5361 27.5273 27.1451C28.4881 27.7856 29.2677 28.6457 29.8373 29.6432C26.2087 32.1755 23.8252 36.3746 23.8252 41.125C23.8252 43.323 24.3484 45.3968 25.2558 47.25H8.0752ZM28.4557 49H33.2306C33.9822 50.8042 34.8808 52.192 35.6456 53.1694C32.7799 52.6514 30.2582 51.142 28.4557 49ZM40.0048 53.1694C40.7696 52.192 41.6682 50.8042 42.4198 49H47.1947C45.3922 51.142 42.8704 52.6514 40.0048 53.1694ZM45.9391 29.7378C44.2136 28.504 42.1993 27.6596 40.0162 27.314C38.6057 25.8414 37.8252 23.9225 37.8252 21.875C37.8252 17.5333 41.3576 14 45.7002 14C50.0428 14 53.5752 17.5333 53.5752 21.875C53.5752 26.1362 50.1706 29.61 45.9391 29.7378Z" fill="white"/>
</g>
</g>
</svg>
