<svg width="45" height="43" viewBox="0 0 45 43" fill="none" xmlns="http://www.w3.org/2000/svg">
<g id="ri:user-add-line">
<path id="Vector" d="M25.9474 25.9793V29.7612C24.2325 29.1822 22.3972 29.0046 20.5955 29.2433C18.7939 29.4821 17.0785 30.1302 15.5934 31.1332C14.1084 32.1363 12.8971 33.465 12.0612 35.0078C11.2252 36.5506 10.7891 38.2624 10.7895 39.9995L7 39.9977C6.99941 37.7881 7.52848 35.6076 8.54667 33.6235C9.56486 31.6393 11.0451 29.9041 12.8741 28.5507C14.703 27.1974 16.8321 26.2618 19.0982 25.8158C21.3642 25.3698 23.7071 25.4251 25.9474 25.9775V25.9793ZM22.1579 23.7138C15.8768 23.7138 10.7895 18.8552 10.7895 12.8567C10.7895 6.85808 15.8768 1.99951 22.1579 1.99951C28.4389 1.99951 33.5263 6.85808 33.5263 12.8567C33.5263 18.8552 28.4389 23.7138 22.1579 23.7138ZM22.1579 20.0947C26.3453 20.0947 29.7368 16.8557 29.7368 12.8567C29.7368 8.85761 26.3453 5.61856 22.1579 5.61856C17.9705 5.61856 14.5789 8.85761 14.5789 12.8567C14.5789 16.8557 17.9705 20.0947 22.1579 20.0947ZM33.5263 30.9519V25.5233H37.3158V30.9519H43V34.5709H37.3158V39.9995H33.5263V34.5709H27.8421V30.9519H33.5263Z" fill="#051761"/>
</g>
</svg>
