<svg width="46" height="45" viewBox="0 0 46 45" fill="none" xmlns="http://www.w3.org/2000/svg">
<g id="uil:file-check-alt">
<path id="Vector" d="M22.0474 38.1896H10.6825C10.1801 38.1896 9.69833 37.9895 9.3431 37.6333C8.98788 37.2771 8.78832 36.7939 8.78832 36.2901V9.69786C8.78832 9.19409 8.98788 8.71096 9.3431 8.35475C9.69833 7.99853 10.1801 7.79841 10.6825 7.79841H20.1533V13.4968C20.1533 15.0081 20.752 16.4575 21.8176 17.5261C22.8833 18.5947 24.3287 19.1951 25.8357 19.1951H31.5182V28.6924C31.5182 29.1961 31.7178 29.6793 32.073 30.0355C32.4282 30.3917 32.91 30.5918 33.4124 30.5918C33.9147 30.5918 34.3965 30.3917 34.7518 30.0355C35.107 29.6793 35.3065 29.1961 35.3065 28.6924V17.2957V17.1817C35.2868 17.0072 35.2487 16.8353 35.1929 16.6688V16.4979C35.1018 16.3026 34.9803 16.1231 34.833 15.966L23.468 4.56935C23.3115 4.4216 23.1324 4.29978 22.9377 4.20845C22.875 4.19745 22.8109 4.19745 22.7483 4.20845C22.5641 4.10969 22.3661 4.03925 22.1611 3.99951H10.6825C9.17539 3.99951 7.73003 4.59987 6.66436 5.66852C5.59869 6.73717 5 8.18656 5 9.69786V36.2901C5 37.8014 5.59869 39.2508 6.66436 40.3195C7.73003 41.3881 9.17539 41.9885 10.6825 41.9885H22.0474C22.5498 41.9885 23.0316 41.7884 23.3868 41.4322C23.742 41.0759 23.9416 40.5928 23.9416 40.0891C23.9416 39.5853 23.742 39.1021 23.3868 38.7459C23.0316 38.3897 22.5498 38.1896 22.0474 38.1896ZM23.9416 10.4766L28.8475 15.3962H25.8357C25.3334 15.3962 24.8516 15.1961 24.4964 14.8399C24.1412 14.4837 23.9416 14.0005 23.9416 13.4968V10.4766ZM14.4708 26.7929H25.8357C26.3381 26.7929 26.8199 26.5928 27.1751 26.2366C27.5303 25.8804 27.7299 25.3972 27.7299 24.8935C27.7299 24.3897 27.5303 23.9066 27.1751 23.5503C26.8199 23.1941 26.3381 22.994 25.8357 22.994H14.4708C13.9684 22.994 13.4866 23.1941 13.1314 23.5503C12.7762 23.9066 12.5766 24.3897 12.5766 24.8935C12.5766 25.3972 12.7762 25.8804 13.1314 26.2366C13.4866 26.5928 13.9684 26.7929 14.4708 26.7929ZM22.0474 30.5918H14.4708C13.9684 30.5918 13.4866 30.7919 13.1314 31.1481C12.7762 31.5044 12.5766 31.9875 12.5766 32.4913C12.5766 32.995 12.7762 33.4782 13.1314 33.8344C13.4866 34.1906 13.9684 34.3907 14.4708 34.3907H22.0474C22.5498 34.3907 23.0316 34.1906 23.3868 33.8344C23.742 33.4782 23.9416 32.995 23.9416 32.4913C23.9416 31.9875 23.742 31.5044 23.3868 31.1481C23.0316 30.7919 22.5498 30.5918 22.0474 30.5918ZM14.4708 19.1951H16.365C16.8673 19.1951 17.3491 18.995 17.7043 18.6388C18.0595 18.2826 18.2591 17.7994 18.2591 17.2957C18.2591 16.7919 18.0595 16.3088 17.7043 15.9525C17.3491 15.5963 16.8673 15.3962 16.365 15.3962H14.4708C13.9684 15.3962 13.4866 15.5963 13.1314 15.9525C12.7762 16.3088 12.5766 16.7919 12.5766 17.2957C12.5766 17.7994 12.7762 18.2826 13.1314 18.6388C13.4866 18.995 13.9684 19.1951 14.4708 19.1951ZM40.4397 31.1426C40.2636 30.9646 40.0541 30.8233 39.8233 30.7269C39.5925 30.6304 39.3449 30.5808 39.0949 30.5808C38.8448 30.5808 38.5972 30.6304 38.3664 30.7269C38.1356 30.8233 37.9261 30.9646 37.75 31.1426L31.5182 37.4108L29.0748 34.9415C28.8981 34.7644 28.6885 34.624 28.4577 34.5281C28.227 34.4323 27.9797 34.3829 27.7299 34.3829C27.4801 34.3829 27.2328 34.4323 27.0021 34.5281C26.7713 34.624 26.5617 34.7644 26.3851 34.9415C26.2084 35.1186 26.0683 35.3289 25.9728 35.5603C25.8772 35.7917 25.828 36.0397 25.828 36.2901C25.828 36.5406 25.8772 36.7886 25.9728 37.02C26.0683 37.2514 26.2084 37.4617 26.3851 37.6388L30.1734 41.4377C30.3495 41.6157 30.559 41.757 30.7898 41.8534C31.0206 41.9499 31.2682 41.9995 31.5182 41.9995C31.7683 41.9995 32.0159 41.9499 32.2467 41.8534C32.4775 41.757 32.687 41.6157 32.8631 41.4377L40.4397 33.8399C40.6172 33.6633 40.7582 33.4532 40.8543 33.2217C40.9505 32.9903 41 32.742 41 32.4913C41 32.2405 40.9505 31.9922 40.8543 31.7608C40.7582 31.5293 40.6172 31.3192 40.4397 31.1426Z" fill="#051761"/>
</g>
</svg>
