<svg width="42" height="40" viewBox="0 0 42 40" fill="none" xmlns="http://www.w3.org/2000/svg">
<g id="dashicons:chart-line">
<path id="Vector" d="M38 3.37662C38 4.77249 37.0981 5.98825 35.8164 6.48356V35.9995H0L10.0162 20.8475C9.69432 20.3287 9.52239 19.7385 9.5178 19.1365C9.5178 17.2678 11.1081 15.7594 13.0781 15.7594C15.0481 15.7594 16.6384 17.2678 16.6384 19.1365C16.6384 19.4292 16.5909 19.6993 16.5197 19.9695L19.9375 21.3879C20.5784 20.7125 21.5278 20.2622 22.5721 20.2622C22.9994 20.2622 23.4029 20.3522 23.7826 20.4648L32.2798 6.03328C31.4254 5.4254 30.8795 4.4573 30.8795 3.37662C30.8795 1.50795 32.4697 -0.000488281 34.4397 -0.000488281C34.8907 -0.000488281 35.2942 0.0895678 35.6977 0.224652L35.8164 0.0220258V0.26968C37.0981 0.76499 38 1.98075 38 3.37662ZM33.4429 33.7481V8.66743L25.634 21.9282C25.9425 22.446 26.1324 23.0089 26.1324 23.6393C26.1324 25.508 24.5422 27.0164 22.5721 27.0164C20.6021 27.0164 19.0119 25.508 19.0119 23.6393L19.0356 23.4817L15.1668 21.8607C14.5734 22.2659 13.8613 22.5136 13.0781 22.5136C12.6508 22.5136 12.2473 22.4235 11.8676 22.2884L4.27233 33.7481H33.4429Z" fill="#051761"/>
</g>
</svg>
